<svg id="Capa_1" enable-background="new 0 0 512 512" height="512" viewBox="0 0 512 512" width="512" xmlns="http://www.w3.org/2000/svg"><g><g><g><g><g><g><g><g><g><g><g><g><g><g><g><g><g><g><g><g><g><g><circle cx="256" cy="256" fill="#d7e8ff" r="256"/></g></g></g></g></g></g></g></g></g></g></g></g></g></g></g></g></g></g></g></g></g><path d="m506.198 201.647-119.933-119.933-4.331 5.782c-7.712-6.097-32.805-21.016-72.038 3.074-47.76 29.327-56.14 41.057-56.14 41.057s-82.012-71.297-113.535-50.692c-40.536 26.496-9.877 109.944-9.877 109.944s-85.644 22.444-84.806 69.367c.198 11.066 9.065 21.247 22.496 30.346l-13.567 1.019 66.738 66.738c-3.098 20.33-1.97 43.181 8.921 65.3l-5.294 7.068 75.11 75.11c18.043 4.031 36.799 6.173 56.058 6.173 141.385 0 256-114.615 256-256 0-18.653-2.014-36.833-5.802-54.353z" fill="#adcfff"/><g><g><path d="m281.674 256.5-25.841 58.37c-32.237 0-58.37-26.133-58.37-58.37s26.133-58.37 58.37-58.37z" fill="#ff415b"/><path d="m314.203 256.5c0 32.237-26.133 58.37-58.37 58.37v-116.74c32.237 0 58.37 26.133 58.37 58.37z" fill="#b30042"/></g><path d="m255.858 391.025 6.005-11.046-5.997-9.482c-.011.01-.022.021-.033.032-8.218-7.923-16.39-16.491-24.434-25.604 8.058.352 16.21.537 24.434.537h.042l6.003-7.96-5.998-7.04c-.016 0-.032 0-.048 0-12.819 0-25.451-.449-37.785-1.316-7.792-9.601-15.411-19.686-22.771-30.182-9.855-14.054-18.868-28.294-26.918-42.463 8.05-14.169 17.063-28.409 26.918-42.463 7.36-10.496 14.98-20.581 22.771-30.182 12.334-.867 24.966-1.316 37.785-1.316.035 0 .07.001.104.001l6.004-8.473-5.998-6.528c-.037 0-.073-.001-.11-.001-8.224 0-16.376.184-24.434.537 8.044-9.113 16.216-17.681 24.434-25.604l.12.117 6.004-10.482-5.996-10.224c-.043.038-.086.075-.128.113-11.479-10.3-22.993-19.362-34.328-26.966-38.233-25.646-70.596-31.843-91.13-17.445-20.532 14.397-25.735 46.935-14.651 91.621 1.371 5.527 2.975 11.172 4.793 16.91-5.741 1.807-11.284 3.734-16.596 5.785-42.95 16.581-66.604 39.522-66.604 64.598s23.654 48.018 66.604 64.598c5.312 2.051 10.855 3.978 16.596 5.784-1.817 5.738-3.422 11.383-4.793 16.909-11.084 44.686-5.881 77.224 14.651 91.621 7.248 5.083 15.971 7.599 25.905 7.599 18.208 0 40.488-8.451 65.225-25.043 11.335-7.603 22.849-16.666 34.328-26.966.01.009.018.016.026.024zm-72.862-83.449c4.722 6.733 9.553 13.302 14.468 19.697-20.49-2.297-39.896-5.808-57.625-10.439 5.413-14.557 12.177-29.637 20.131-44.914 7.06 11.932 14.758 23.865 23.026 35.656zm0-102.151c-8.268 11.791-15.966 23.724-23.027 35.656-7.953-15.277-14.718-30.357-20.131-44.914 17.729-4.632 37.136-8.142 57.625-10.439-4.914 6.395-9.745 12.964-14.467 19.697zm-44.009-115.557c4.678-3.28 10.556-4.894 17.419-4.894 14.971 0 34.631 7.682 56.744 22.515 10.445 7.006 21.064 15.336 31.674 24.782-11.616 11.247-23.123 23.698-34.298 37.122-27.062 2.244-52.658 6.495-75.595 12.563-1.766-5.556-3.322-11.018-4.647-16.36-9.35-37.691-6.177-65.293 8.703-75.728zm-29.664 217.237c-36.229-13.985-57.007-32.43-57.007-50.604s20.778-36.619 57.007-50.604c5.134-1.982 10.5-3.844 16.063-5.588 6.694 18.172 15.395 37.099 25.818 56.192-10.422 19.093-19.124 38.02-25.818 56.192-5.563-1.745-10.929-3.606-16.063-5.588zm103.827 98.406c-22.115 14.834-41.772 22.517-56.744 22.515-6.861 0-12.742-1.615-17.419-4.894-14.88-10.435-18.053-38.037-8.703-75.729 1.325-5.342 2.881-10.803 4.647-16.36 22.937 6.068 48.533 10.319 75.595 12.563 11.176 13.424 22.682 25.875 34.298 37.122-10.61 9.447-21.229 17.777-31.674 24.783z" fill="#3340dc"/><path d="m407.746 191.902c-5.312-2.051-10.855-3.978-16.596-5.785 1.817-5.738 3.422-11.383 4.793-16.91 11.084-44.686 5.881-77.224-14.651-91.621-20.533-14.398-52.896-8.202-91.13 17.445-11.293 7.575-22.763 16.6-34.199 26.852l-.008 20.705c8.177 7.891 16.309 16.418 24.313 25.487-8.021-.351-16.137-.534-24.323-.536l-.006 15c12.783.002 25.38.45 37.68 1.315 7.792 9.601 15.411 19.686 22.771 30.182 9.855 14.054 18.868 28.294 26.918 42.463-8.051 14.169-17.063 28.409-26.918 42.463-7.36 10.496-14.98 20.581-22.771 30.182-12.319.866-24.934 1.314-37.737 1.316l-.006 15c8.21-.001 16.348-.185 24.391-.536-8.033 9.101-16.195 17.658-24.401 25.572l-.008 20.529c11.47 10.291 22.976 19.346 34.303 26.944 24.739 16.594 47.016 25.045 65.225 25.043 9.933 0 18.659-2.517 25.905-7.599 20.532-14.397 25.734-46.936 14.651-91.621-1.371-5.527-2.975-11.171-4.793-16.909 5.741-1.807 11.284-3.734 16.596-5.784 42.95-16.581 66.604-39.522 66.604-64.598s-23.653-48.018-66.603-64.599zm-140.904-59.63c10.611-9.447 21.23-17.776 31.675-24.782 22.115-14.834 41.772-22.515 56.744-22.515 6.861 0 12.741 1.615 17.418 4.894 14.88 10.435 18.053 38.036 8.703 75.729-1.325 5.342-2.881 10.803-4.647 16.36-22.937-6.068-48.533-10.319-75.594-12.563-11.176-13.425-22.683-25.877-34.299-37.123zm61.829 73.153c-4.722-6.733-9.553-13.302-14.468-19.698 20.49 2.297 39.896 5.808 57.625 10.439-5.413 14.557-12.177 29.637-20.131 44.914-7.06-11.931-14.758-23.864-23.026-35.655zm0 102.151c8.268-11.791 15.966-23.724 23.027-35.656 7.953 15.277 14.718 30.357 20.13 44.914-17.729 4.632-37.135 8.142-57.625 10.439 4.915-6.395 9.746-12.964 14.468-19.697zm44.009 115.556c-14.884 10.436-41.913 4.01-74.162-17.621-10.445-7.006-21.064-15.336-31.675-24.782 11.616-11.247 23.123-23.698 34.298-37.122 27.062-2.244 52.657-6.495 75.594-12.563 1.766 5.556 3.323 11.018 4.647 16.36 9.35 37.692 6.177 65.294-8.702 75.728zm29.664-116.027c-5.134 1.982-10.5 3.844-16.063 5.588-6.694-18.172-15.395-37.099-25.818-56.192 10.422-19.093 19.124-38.02 25.818-56.192 5.563 1.744 10.929 3.606 16.063 5.588 36.229 13.985 57.007 32.43 57.007 50.604s-20.779 36.618-57.007 50.604z" fill="#1b2ddd"/><circle cx="319.268" cy="85.5" fill="#ffb806" r="20"/><circle cx="83.873" cy="209.065" fill="#ffd357" r="20"/><circle cx="393.487" cy="385.781" fill="#ffb806" r="20"/></g></g></svg>