<?xml version="1.0" encoding="iso-8859-1"?>
<!-- Generator: Adobe Illustrator 19.0.0, SVG Export Plug-In . SVG Version: 6.00 Build 0)  -->
<svg version="1.1" id="Capa_1" xmlns="http://www.w3.org/2000/svg" xmlns:xlink="http://www.w3.org/1999/xlink" x="0px" y="0px"
	 viewBox="0 0 512 512" style="enable-background:new 0 0 512 512;" xml:space="preserve">
<circle style="fill:#b0b0b0;" cx="256" cy="256" r="256"/>
<path style="fill:#838987;" d="M512,256c0-5.57-0.198-11.092-0.549-16.573L391.915,119.891L138.988,313.94l-33.619,71.773
	l125.014,125.014C238.809,511.565,247.354,512,256,512C397.385,512,512,397.385,512,256z"/>
<rect x="114.36" y="369.17" style="fill:#E0E0E0;" width="286.41" height="17"/>
<rect x="255.95" y="369.17" style="fill:#E0E0E0;" width="144.82" height="17"/>
<path style="fill:#FFFFFF;" d="M121.892,346.884c0,0,42.961-170.743,208.747-218.661s-50.121,82.617-50.121,82.617
	s45.853-18.176,50.397-0.826c6.634,25.33-75.595,38.004-199.108,139.623L121.892,346.884z"/>
<path style="fill:#E0E0E0;" d="M330.639,128.223c-28.356,8.196-53.117,19.987-74.687,33.9V264.57
	c50.472-28.539,78.974-39.236,74.962-54.556c-4.544-17.35-50.397,0.826-50.397,0.826S496.424,80.305,330.639,128.223z"/>
<polygon style="fill:#FFD863;" points="121.892,346.884 105.369,385.714 115.834,388.743 131.807,349.638 "/>
<g>
</g>
<g>
</g>
<g>
</g>
<g>
</g>
<g>
</g>
<g>
</g>
<g>
</g>
<g>
</g>
<g>
</g>
<g>
</g>
<g>
</g>
<g>
</g>
<g>
</g>
<g>
</g>
<g>
</g>
</svg>
