<svg height="512" viewBox="0 0 128 128" width="512" xmlns="http://www.w3.org/2000/svg"><g id="Circle_Grid" data-name="Circle Grid"><circle cx="64" cy="64" fill="#b0b0b0" r="64"/></g><g id="icon"><path d="m74.763 88.956h-21.531l.863-3.14 1.139-4.106.448-1.622 2.898-10.472.449-1.673h.017l.621-2.295h8.661l.621 2.295h.017l.449 1.673 2.898 10.472.448 1.622 1.139 4.106z" fill="#71757F"/><g fill="#51565C"><path d="m46.791 53.718a12.885 12.885 0 0 1 -9.94-12.518v-6.365h9.94v-2.652h-11.266a1.326 1.326 0 0 0 -1.325 1.326v7.691a15.542 15.542 0 0 0 12.591 15.233z"/><path d="m92.475 32.183h-11.6v2.652h10.274v6.365a12.894 12.894 0 0 1 -10.271 12.6v2.681a15.536 15.536 0 0 0 12.922-15.281v-7.691a1.326 1.326 0 0 0 -1.325-1.326z"/><path d="m69.415 69.616a24.6 24.6 0 0 1 -10.835 0l1.087-3.968h8.661z"/><path d="m83.889 25.486v25.326c0 9.764-8.9 17.683-19.892 17.683a20.4 20.4 0 0 1 -17.079-8.643 1.551 1.551 0 0 1 -.1-.173 15.983 15.983 0 0 1 -2.709-8.867v-25.326z"/></g><path d="m78.61 25.486v20.047c0 9.764-8.9 17.683-19.892 17.683a21.313 21.313 0 0 1 -11.9-3.537 15.983 15.983 0 0 1 -2.709-8.867v-25.326z" fill="#71757F"/><path d="m80.557 85.811h-33.114a3.258 3.258 0 0 0 -3.258 3.258v12.624h39.63v-12.624a3.258 3.258 0 0 0 -3.258-3.258z" fill="#575b6d"/><path d="m50.961 91.63h26.077v8.075h-26.077z" fill="#414451"/><rect fill="#71757F" height="4.972" rx="2.486" width="45.52" x="41.24" y="23"/><path d="m44.113 27.972h39.775v1.982h-39.775z" fill="#51565C"/><path d="m53.9 81.71h20.2a1.725 1.725 0 0 1 1.725 1.725v2.376a0 0 0 0 1 0 0h-23.65a0 0 0 0 1 0 0v-2.376a1.725 1.725 0 0 1 1.725-1.725z" fill="#71757F"/><path d="m72.761 81.71h-17.527l.448-1.622h16.631z" fill="#51565C"/><path d="m41.357 100.471h45.286a1.725 1.725 0 0 1 1.725 1.725v2.804a0 0 0 0 1 0 0h-48.736a0 0 0 0 1 0 0v-2.8a1.725 1.725 0 0 1 1.725-1.729z" fill="#575b6d"/></g></svg>