<svg id="Capa_1" enable-background="new 0 0 512 512" height="512" viewBox="0 0 512 512" width="512" xmlns="http://www.w3.org/2000/svg"><g><g><g><g><g><g><g><g><g><g><g><g><g><circle cx="256" cy="256" fill="#424ede" r="256"/></g></g></g></g></g></g></g></g></g></g></g></g><path d="m79 367.744 141.842 141.842c11.496 1.579 23.229 2.414 35.158 2.414 141.385 0 256-114.615 256-256 0-20.587-2.446-40.599-7.035-59.78l-71.965-71.965z" fill="#3340dc"/><g><path d="m256.117 367.744h-177.117v-243.489h177l91.461 125.818z" fill="#fff"/><path d="m256 124.255h177v243.489h-177z" fill="#d7e8ff"/><g><path d="m256 200.568h-50v-15.6h50l6.825 7.8z" fill="#555a66"/><path d="m256 184.968h50v15.601h-50z" fill="#333940"/></g><g><path d="m256 231.77h-85v-15.601h85l11.603 7.801z" fill="#555a66"/><path d="m256 216.169h85v15.601h-85z" fill="#333940"/></g><g><path d="m256 262.972h-75v-15.601h75l10.238 7.801z" fill="#555a66"/><path d="m256 247.371h75v15.601h-75z" fill="#333940"/></g><path d="m256 349.178v-15h-102.529c-3.255-21.413-20.225-38.383-41.638-41.638v-93.081c21.413-3.255 38.383-20.225 41.638-41.638h102.529v-15h-116.964v7.5c0 19.135-15.568 34.703-34.703 34.703h-7.5v121.951h7.5c19.135 0 34.703 15.568 34.703 34.703v7.5z" fill="#d7e8ff"/><path d="m372.963 150.321v-7.5h-116.963v15h102.528c3.255 21.413 20.225 38.383 41.638 41.638v93.081c-21.413 3.255-38.383 20.225-41.638 41.638h-102.528v15h116.963v-7.5c0-19.135 15.568-34.703 34.703-34.703h7.5v-121.951h-7.5c-19.135 0-34.703-15.568-34.703-34.703z" fill="#adcfff"/><path d="m290.27 440.332-34.153-14.111-17.849-51.729 17.732-45.355h34.27z" fill="#b30042"/><path d="m256.117 426.221-34.153 14.111v-111.195h34.036z" fill="#ff415b"/><g><path d="m256.117 391.069c-5.926 0-12.65 5.492-17.997 3.756-5.542-1.799-7.74-10.255-12.352-13.612-4.659-3.391-13.368-2.892-16.759-7.55-3.357-4.613-.214-12.725-2.013-18.267-1.736-5.347-9.105-10.036-9.105-15.961 0-5.926 7.369-10.615 9.105-15.962 1.799-5.542-1.344-13.654 2.013-18.267 3.391-4.659 12.1-4.16 16.759-7.55 4.613-3.357 6.811-11.813 12.352-13.612 5.347-1.736 12.071 3.756 17.997 3.756l19.001 51.635z" fill="#ffd357"/><path d="m273.535 339.434-17.418 39.344c-21.729 0-39.344-17.615-39.344-39.344s17.615-39.344 39.344-39.344z" fill="#ffb806"/></g><g><path d="m314.343 339.434c0 5.926-7.369 10.615-9.105 15.962-1.799 5.542 1.344 13.654-2.013 18.267-3.391 4.659-12.1 4.16-16.759 7.55-4.613 3.357-6.811 11.813-12.352 13.612-5.347 1.736-12.071-3.756-17.997-3.756v-103.27c5.926 0 12.65-5.492 17.997-3.756 5.542 1.799 7.74 10.255 12.352 13.612 4.659 3.391 13.368 2.892 16.759 7.55 3.357 4.613.214 12.725 2.013 18.267 1.737 5.348 9.105 10.037 9.105 15.962z" fill="#ffb806"/><path d="m295.46 339.434c0 21.729-17.615 39.344-39.344 39.344v-78.687c21.73 0 39.344 17.614 39.344 39.343z" fill="#f49c0f"/></g></g></g></svg>