<svg height="512" viewBox="0 0 128 128" width="512" xmlns="http://www.w3.org/2000/svg"><g id="Circle_Grid" data-name="Circle Grid"><circle cx="64" cy="64" fill="#b0b0b0" r="64"/></g><g id="icon"><path d="m50.491 40.43h-4.309v-6.33a5.392 5.392 0 0 1 5.386-5.386h24.864a5.392 5.392 0 0 1 5.386 5.386v5.79h-4.309v-5.79a1.079 1.079 0 0 0 -1.077-1.077h-24.864a1.079 1.079 0 0 0 -1.077 1.077z" fill="#575b6d"/><path d="m43.883 38.141h8.906a1 1 0 0 1 1 1v2.5a0 0 0 0 1 0 0h-10.906a0 0 0 0 1 0 0v-2.5a1 1 0 0 1 1-1z" fill="#555A66"/><path d="m75.211 38.141h8.906a1 1 0 0 1 1 1v2.5a0 0 0 0 1 0 0h-10.906a0 0 0 0 1 0 0v-2.5a1 1 0 0 1 1-1z" fill="#555A66"/><path d="m102.913 44.237v48.893a2.161 2.161 0 0 1 -2.154 2.154h-73.518a2.161 2.161 0 0 1 -2.154-2.154v-48.893a3.234 3.234 0 0 1 3.232-3.232h71.362a3.234 3.234 0 0 1 3.232 3.232z" fill="#575b6d"/><path d="m103.393 59.927-39.393 10.349-39.393-10.349a2.154 2.154 0 0 1 -1.607-2.084v-14.679a2.154 2.154 0 0 1 2.154-2.154h77.691a2.154 2.154 0 0 1 2.155 2.154v14.679a2.154 2.154 0 0 1 -1.607 2.084z" fill="#575b6d"/><path d="m102.913 60.061v2.51l-38.918 10.222-38.908-10.222v-2.51l38.908 10.212z" fill="#414451"/><rect fill="#a2a0a0" height="14.16" rx="1" width="10.573" x="58.713" y="63.813"/><path d="m59.074 67.761h9.851v6.264h-9.851z" fill="#a2a0a0" transform="matrix(0 1 -1 0 134.893 6.893)"/></g></svg>