<svg id="Capa_1" enable-background="new 0 0 512 512" height="512" viewBox="0 0 512 512" width="512" xmlns="http://www.w3.org/2000/svg"><g><g><g><g><g><g><g><g><g><g><g><g><g><g><circle cx="256" cy="256" fill="#ff6379" r="256"/></g></g></g></g></g></g></g></g></g></g></g></g></g><path d="m144.017 438.96 69.513 69.513c13.816 2.307 28 3.527 42.47 3.527 141.385 0 256-114.615 256-256 0-27.677-4.41-54.32-12.535-79.286l-92.971-92.972z" fill="#ff415b"/><g><g><path d="m265.884 408.958h-140.61v-325.215h140.61l69.015 159.624z" fill="#424ede"/><path d="m265.884 83.743h140.61v325.215h-140.61z" fill="#3340dc"/></g><g><path d="m235.882 113.745h140.61v325.215h-140.61l-69.015-159.624z" fill="#d7e8ff"/><path d="m95.272 113.745h140.61v325.215h-91.865l-14.272-31.568-34.473-17.177z" fill="#fff"/><path d="m144.017 438.96v-48.745h-48.745z" fill="#d7e8ff"/></g><path d="m136.318 181.919h93.696v15.601h-93.696z" fill="#555a66"/><g><path d="m235.882 233.813h-99.564v-15.601h99.564l11.603 7.801z" fill="#555a66"/><path d="m235.882 218.212h70.436v15.601h-70.436z" fill="#333940"/></g><g><path d="m235.999 306.401h-99.681v-15.601h99.681l13.607 7.801z" fill="#555a66"/><path d="m235.999 290.8h99.681v15.601h-99.681z" fill="#333940"/></g><g><path d="m235.999 342.695h-99.681v-15.601h99.681l13.607 7.801z" fill="#555a66"/><path d="m235.999 327.094h99.681v15.601h-99.681z" fill="#333940"/></g><g><path d="m235.999 378.989h-99.681v-15.601h99.681l13.607 7.8z" fill="#555a66"/><path d="m235.999 363.388h99.681v15.601h-99.681z" fill="#333940"/></g><g><path d="m235.882 270.107h-99.564v-15.601h99.564l10.238 7.801z" fill="#555a66"/><path d="m235.882 254.506h50.436v15.601h-50.436z" fill="#333940"/></g></g></g></svg>