<svg id="Capa_1" enable-background="new 0 0 512 512" height="512" viewBox="0 0 512 512" width="512" xmlns="http://www.w3.org/2000/svg"><g><g><g><g><g><g><g><g><g><g><g><g><g><g><circle cx="256" cy="256" fill="#6dd7a7" r="256"/></g></g></g></g></g></g></g></g></g></g></g></g></g><path d="m305.392 507.221c116.618-22.798 204.881-124.758 206.563-247.651l-45.256-45.256-345.113.606-1.305-1.305-75.011.699 108.793 108.793-6.831 25.953z" fill="#00c379"/><g><g><path d="m278.375 297.82-22.371-106.451h-108.773v157.69s36.645 28.132 108.777 28.132z" fill="#555a66"/><path d="m255.984 191.359h108.773v157.69s-36.645 28.132-108.777 28.132z" fill="#333940"/></g><path d="m449.471 301.036c0-11.601-7.333-21.488-17.617-25.282v-62.548h-18.647v62.548c-10.284 3.794-17.617 13.681-17.617 25.282 0 8.996 4.413 16.956 11.188 21.849v38.607h31.505v-38.607c6.775-4.893 11.188-12.853 11.188-21.849z" fill="#ffb806"/><path d="m298.183 214.313-42.199 93.915-210.714-93.915 210.714-93.915z" fill="#707789"/><path d="m466.699 214.313-210.715 93.915v-187.83z" fill="#555a66"/></g></g></svg>