<svg id="Capa_1" enable-background="new 0 0 512 512" height="512" viewBox="0 0 512 512" width="512" xmlns="http://www.w3.org/2000/svg"><g><g><g><g><g><g><g><g><g><g><g><circle cx="256" cy="256" fill="#ff6379" r="256"/></g></g></g></g></g></g></g></g></g></g><path d="m512 256c0-1.627-.031-3.246-.062-4.866l-175.661-175.661-97.74 26.261 68.601 68.602-23.945 73.033-81.543-81.543-97.65 26.439 70.1 70.1-47.714 167.189 82.009 82.009c15.427 2.902 31.336 4.437 47.605 4.437 141.385 0 256-114.615 256-256z" fill="#ff415b"/><path d="m248.695 198.776v-99.517h38.751l10.001 168.632-10.001 168.632c-65.777 0-120.54-54.762-120.54-122.315 0-53.347 34.156-98.709 81.789-115.432z" fill="#fff"/><circle cx="255.323" cy="262.672" fill="#812af2" r="12.933"/><path d="m326.211 198.776v-99.517h-38.751v337.263c65.777 0 120.54-54.762 120.54-122.315 0-53.346-34.156-98.708-81.789-115.431z" fill="#d7e8ff"/><g><path d="m287.46 314.945h-106.671c0 58.913 47.759 106.672 106.672 106.672l11.487-59.287z" fill="#812af2"/><path d="m287.46 421.617c58.913 0 106.672-47.759 106.672-106.672h-106.672z" fill="#5e00d8"/></g><circle cx="306.344" cy="291.112" fill="#5e00d8" r="8.774"/><circle cx="320.811" cy="239.207" fill="#5e00d8" r="14.467"/><g><path d="m287.46 101.917h-48.825v-26.439h48.825l10.545 13.219z" fill="#d7e8ff"/><path d="m287.46 75.478h48.826v26.439h-48.826z" fill="#adcfff"/></g><g><path d="m152.826 175.046h-39.659v220.956c0 21.903 17.756 39.659 39.659 39.659l13.22-124.516z" fill="#fff"/><path d="m152.826 435.66c21.903 0 39.659-17.756 39.659-39.659v-220.955h-39.659z" fill="#d7e8ff"/><g><path d="m152.826 271.338h-26.439v124.664c0 14.579 11.861 26.439 26.439 26.439l10.545-86.706z" fill="#00c379"/><path d="m152.826 422.441c14.579 0 26.439-11.861 26.439-26.439v-124.664h-26.439z" fill="#00a963"/></g><g><path d="m152.826 188.265h-48.826v-26.439h48.826l10.545 13.22z" fill="#d7e8ff"/><path d="m152.826 161.826h48.826v26.439h-48.826z" fill="#adcfff"/></g></g></g></svg>